inDegrees=yes
name=ik_S57_A04_T01
DataType=double
version=3
OpenSimVersion=4.3-2021-08-27-4bc7ad9
endheader
time	pelvis_tilt	pelvis_list	pelvis_rotation	pelvis_tx	pelvis_ty	pelvis_tz	hip_flexion_r	hip_adduction_r	hip_rotation_r	knee_angle_r	knee_angle_r_beta	ankle_angle_r	subtalar_angle_r	mtp_angle_r	hip_flexion_l	hip_adduction_l	hip_rotation_l	knee_angle_l	knee_angle_l_beta	ankle_angle_l	subtalar_angle_l	mtp_angle_l	lumbar_extension	lumbar_bending	lumbar_rotation	arm_flex_r	arm_add_r	arm_rot_r	elbow_flex_r	pro_sup_r	wrist_flex_r	wrist_dev_r	arm_flex_l	arm_add_l	arm_rot_l	elbow_flex_l	pro_sup_l	wrist_flex_l	wrist_dev_l
12.19999999999983	-25.78790477445742	-11.28073140368455	18.22268223208799	0	0.9399999999999999	0	70.28373341471534	2.122770078262628	-1.174501520922479	57.54736417422272	1.004390980684414	0	0	0	64.80969813058154	-11.96539883901421	-0.4041449532679151	58.18420702492365	1.015505985246932	0	0	0	0	0	0	31.68765928519706	-31.68765928519706	4.427785704889299	77.65874612119939	85.57221454322548	0	0	31.68765928519706	-31.68765928519706	4.427785704889299	77.65874612119939	85.57221454312118	0	0
12.21999999999983	-25.63405921162657	-11.17066522113409	18.36860704838785	0	0.9399999999999999	0	69.01362757449449	1.893122806646002	-1.254334543171162	56.28646961691446	0.9823842191389087	0	0	0	63.59475676544599	-11.7822093213384	-0.7725757571263003	56.90719667053455	0.9932179499807826	0	0	0	0	0	0	31.69179644673927	-31.69179644673927	4.428140068737868	77.66331929958227	85.57186017939487	0	0	31.69179644673927	-31.69179644673927	4.428140068737868	77.66331929958227	85.5718601792906	0	0
12.23999999999983	-25.18104940073118	-10.79471553457143	18.95656067930246	0	0.9399999999999999	0	68.47868395568425	1.335692347928332	-1.228265941957192	56.19600588292317	0.9808053291271123	0	0	0	62.01636240777244	-11.16469928188477	-0.9112389940428656	55.62447461624525	0.9708302267454889	0	0	0	0	0	0	31.69786147840257	-31.69786147840257	4.428658005602397	77.67000300174894	85.57134224255655	0	0	31.69786147840257	-31.69786147840257	4.428658005602397	77.67000300174894	85.57134224245236	0	0
12.25999999999983	-24.96922782090898	-10.61693952766313	19.38668901101803	0	0.9399999999999999	0	67.18216445542754	0.7951926845411645	-1.408980035739791	54.92060531320084	0.9585453899036462	0	0	0	60.75279241100771	-10.68215426655111	-0.9309243956410681	54.33171639824774	0.9482673394092177	0	0	0	0	0	0	31.70208110911911	-31.70208110911911	4.429019006949598	77.67466167707813	85.5709812412276	0	0	31.70208110911911	-31.70208110911911	4.429019006949598	77.67466167707813	85.57098124112345	0	0
12.27999999999983	-24.63076578959927	-10.41656241009371	19.6890384512776	0	0.9399999999999999	0	65.71612943079329	0.3660017893094151	-1.551265619344314	53.84404187371116	0.9397558132779565	0	0	0	59.31187677658678	-10.42155108778636	-0.9485033962019715	52.93290336948221	0.9238534464374651	0	0	0	0	0	0	31.70648179998645	-31.70648179998645	4.429395438572379	77.67951943569628	85.57060480962383	0	0	31.70648179998645	-31.70648179998645	4.429395438572379	77.67951943569628	85.57060480951972	0	0
12.29999999999983	-24.030692346533	-10.09444906899319	20.08219643458468	0	0.9399999999999999	0	62.94456698845716	-0.3142273743523952	-2.083203526277992	51.45774429732591	0.898107063637673	0	0	0	58.64381091959248	-10.14556838668169	-0.9189964307892369	52.59418356543109	0.9179416706150632	0	0	0	0	0	0	31.89092303542735	-31.89092303542735	4.442718351811384	77.8508980543926	85.55728189704018	0	0	31.89092303542735	-31.89092303542735	4.442718351811384	77.8508980543926	85.55728189693849	0	0
12.31999999999983	-23.28850545071869	-9.737558072582445	20.29249809783674	0	0.9399999999999999	0	61.12673302087699	-0.6095210719197082	-2.3716076004826	49.56647082748742	0.8650981145333738	0	0	0	56.78493021057854	-10.04894299632697	-1.08847217585871	51.23430797347559	0.8942073641179328	0	0	0	0	0	0	31.89445963076381	-31.89445963076381	4.443015958706135	77.8547368472133	85.55698429016046	0	0	31.89445963076381	-31.89445963076381	4.443015958706135	77.8547368472133	85.55698429005878	0	0
12.33999999999983	-22.20212682207893	-9.229771576328558	20.55100118532014	0	0.9399999999999999	0	58.93286430804596	-0.9180548620713778	-2.512911406827284	48.60529211168573	0.8483223812425433	0	0	0	53.6346746432172	-9.934111678340132	-1.560165287739607	48.96204896685913	0.8545489629943798	0	0	0	0	0	0	31.90082812519204	-31.90082812519204	4.443554163104974	77.86167949234375	85.55644608578879	0	0	31.90082812519204	-31.90082812519204	4.443554163104974	77.86167949234375	85.5564460856872	0	0
12.35999999999983	-22.19968275693614	-9.216956699618081	20.54837081565541	0	0.9399999999999999	0	58.91908946343255	-0.9215129382689267	-2.563867253210325	48.27052955495994	0.842479672415284	0	0	0	52.64326362258888	-9.894300769609051	-1.82926294309463	47.62941292689269	0.8312900763662266	0	0	0	0	0	0	31.90350962964012	-31.90350962964012	4.443780074203835	77.86459351139196	85.55622017470135	0	0	31.90350962964012	-31.90350962964012	4.443780074203835	77.86459351139196	85.55622017459977	0	0
12.37999999999982	-20.07418864282979	-8.253474674838674	20.81566947055895	0	0.9399999999999999	0	54.63871738546928	-1.297074999808302	-2.920990178345254	46.02389864344283	0.8032685659322292	0	0	0	49.33175274674003	-9.739459631149343	-2.301441942257143	46.65134595421065	0.8142195873879117	0	0	0	0	0	0	31.91296020141354	-31.91296020141354	4.444576305746079	77.87486389017933	85.55542394319926	0	0	31.91296020141354	-31.91296020141354	4.444576305746079	77.87486389017933	85.55542394309785	0	0
12.39999999999982	-18.74375139340821	-7.689904884293837	20.89334069894496	0	0.9399999999999999	0	52.24795158681055	-1.403008426359606	-3.157032498204278	44.40013931142708	0.7749286193285704	0	0	0	47.88184212314976	-9.808514720271639	-2.434287731262448	46.27571761284887	0.8076636360673433	0	0	0	0	0	0	31.91986426073519	-31.91986426073519	4.445158278030762	77.88237061191771	85.55484197094395	0	0	31.91986426073519	-31.91986426073519	4.445158278030762	77.88237061191771	85.55484197084262	0	0
12.41999999999982	-18.74719274544185	-7.689533696534838	20.89527934356392	0	0.9399999999999999	0	51.34521096002055	-1.515552694313659	-3.358860022306596	43.33145700195972	0.7562765943705481	0	0	0	46.01792589191394	-9.75113776615933	-3.191749255134562	43.70736229634207	0.7628373794331986	0	0	0	0	0	0	31.92310562309715	-31.92310562309715	4.445432125774464	77.88590303829817	85.55456812321403	0	0	31.92310562309715	-31.92310562309715	4.445432125774464	77.88590303829817	85.55456812311277	0	0
12.43999999999982	-17.23261158594648	-6.969581493771025	21.02042376255499	0	0.9399999999999999	0	48.78164636188131	-1.677681095598653	-3.279302008241207	42.11276124695425	0.7350063408656244	0	0	0	43.47696845792629	-9.654179503649683	-3.525860896518588	42.49004901615861	0.741591254665745	0	0	0	0	0	0	31.93514875829054	-31.93514875829054	4.446435854684047	77.89884703636542	85.55356439435495	0	0	31.93514875829054	-31.93514875829054	4.446435854684047	77.89884703636542	85.55356439425385	0	0
12.45999999999982	-17.22752435396956	-6.962868551776475	21.01751845905743	0	0.9399999999999999	0	47.87633885058218	-1.791715622765921	-3.282285781883794	40.92500842188004	0.7142761433682153	0	0	0	42.58748020396202	-9.54022510953124	-3.781252244026635	41.21532288992474	0.7193430867017712	0	0	0	0	0	0	31.93811115454365	-31.93811115454365	4.446685790982014	77.90207088836306	85.55331445806956	0	0	31.93811115454365	-31.93811115454365	4.446685790982014	77.90207088836306	85.55331445796853	0	0
12.47999999999982	-14.8034591437307	-5.869985964502335	21.0622173536933	0	0.9399999999999999	0	44.34156585150689	-1.795198614125368	-3.07759137389345	39.80323161918479	0.6946974446886883	0	0	0	39.00920717408047	-9.389078702116919	-4.288402259094939	39.8483773284317	0.695485385958195	0	0	0	0	0	0	31.9495536929379	-31.9495536929379	4.447640671552906	77.91438501563719	85.55235957754688	0	0	31.9495536929379	-31.9495536929379	4.447640671552906	77.91438501563719	85.55235957744603	0	0
12.49999999999982	-14.78366862851982	-5.832018231742842	21.07276588242624	0	0.9399999999999999	0	44.29995771468341	-1.844043676150648	-3.102865203629167	39.37173789100083	0.6871664584301728	0	0	0	38.04296921399041	-9.125539043951312	-4.439569920900279	38.47472005293951	0.6715105437068815	0	0	0	0	0	0	31.95190426805104	-31.95190426805104	4.44783748137588	77.91692324391039	85.55216276773382	0	0	31.95190426805104	-31.95190426805104	4.44783748137588	77.91692324391039	85.55216276763301	0	0
12.51999999999982	-12.28161261784575	-4.658979903677785	21.38995117968611	0	0.9399999999999999	0	39.72858408348726	-2.030543322336831	-3.221886015071275	37.14698761414874	0.6483372410644485	0	0	0	34.40048426080041	-8.748902000442161	-4.675077997010842	37.05645848240046	0.6467572096464692	0	0	0	0	0	0	31.97775813628711	-31.97775813628711	4.449979516140999	77.94454231489757	85.55002073307644	0	0	31.97775813628711	-31.97775813628711	4.449979516140999	77.94454231489757	85.55002073297564	0	0
12.53999999999982	-11.22179085997959	-4.160901641397871	21.59887438329496	0	0.9399999999999999	0	38.5538521791187	-2.180866972461977	-3.276597530737356	36.90416247919328	0.6440991429528761	0	0	0	32.39284006098729	-8.474482008260425	-4.682552786445949	35.66944952838834	0.6225493366443151	0	0	0	0	0	0	31.9882456818949	-31.9882456818949	4.450850462301435	77.95577257970878	85.54914978695986	0	0	31.9882456818949	-31.9882456818949	4.450850462301435	77.95577257970878	85.54914978685918	0	0
12.55999999999982	-10.42846836566657	-3.834479343082013	21.7132945922211	0	0.9399999999999999	0	37.69339200900707	-2.233782786765907	-3.365540188324009	36.4124867618826	0.6355177828336998	0	0	0	30.6675783897693	-8.275086901170248	-4.621185279850521	34.20142141621035	0.5969274125749725	0	0	0	0	0	0	31.99566597817444	-31.99566597817444	4.4514664470016	77.9637152095044	85.54853380229073	0	0	31.99566597817444	-31.99566597817444	4.4514664470016	77.9637152095044	85.54853380219012	0	0
12.57999999999982	-9.602770955432765	-3.52583824856876	21.80665231954475	0	0.9399999999999999	0	36.80333807500192	-2.237656048505472	-3.405588564792792	36.4273471662544	0.6357771458181655	0	0	0	28.84814495583879	-8.054608121787215	-4.565461510610325	32.62007077265172	0.5693276372163431	0	0	0	0	0	0	32.00412327829688	-32.00412327829688	4.452168563258383	77.97276836189702	85.54783168606913	0	0	32.00412327829688	-32.00412327829688	4.452168563258383	77.97276836189702	85.54783168596894	0	0
